<svg width="26" height="36" viewBox="0 0 26 36" fill="none" xmlns="http://www.w3.org/2000/svg">
<mask id="mask0_3488_2588" style="mask-type:luminance" maskUnits="userSpaceOnUse" x="0" y="0" width="26" height="36">
<path d="M0 0H25.5512V35.2727H0V0Z" fill="white"/>
</mask>
<g mask="url(#mask0_3488_2588)">
<path d="M10.7307 28.6632C10.231 27.2051 9.31607 25.9254 8.09909 24.9804L5.10682 22.6571C2.0339 20.272 0.168104 16.6542 0.00634766 12.7676C0.00634766 5.71662 5.72248 0.000488281 12.7734 0.000488281C19.8249 0.000488281 25.541 5.71662 25.541 12.7676C25.3788 16.6542 23.513 20.272 20.4405 22.6571L17.4482 24.9804C16.2308 25.9254 15.3158 27.2051 14.8162 28.6632L14.4645 29.6897C14.2167 30.412 13.5374 30.8973 12.7734 30.8973C12.0099 30.8973 11.3306 30.412 11.0824 29.6897L10.7307 28.6632ZM12.7734 35.2383C9.95279 35.2383 7.6667 34.895 7.6667 34.4721C7.6667 34.0491 9.95279 33.7058 12.7734 33.7058C15.5941 33.7058 17.8806 34.0491 17.8806 34.4721C17.8806 34.895 15.5941 35.2383 12.7734 35.2383ZM12.7734 22.7261C18.4148 22.7261 22.9874 18.153 22.9874 12.5122C22.9874 6.87132 18.4148 2.29868 12.7734 2.29868C7.13259 2.29868 2.5595 6.87132 2.5595 12.5122C2.5595 18.153 7.13259 22.7261 12.7734 22.7261ZM11.2061 6.89462H16.2483C16.8962 6.89462 17.6369 7.48295 17.9308 8.23348L18.8812 10.6513C18.9058 10.6482 18.93 10.6428 18.9565 10.6428H19.686C20.0986 10.6419 20.4338 11.0214 20.4338 11.491C20.4338 11.9597 20.0986 12.3397 19.686 12.3397H19.5031C19.5031 12.341 19.5036 12.3415 19.5036 12.3428C19.6031 12.6358 19.6586 12.9558 19.6586 13.2914V14.2852C19.6586 15.2576 19.4211 16.0964 18.8843 16.505V17.597C18.8843 18.1454 18.4918 18.5899 18.0088 18.5899H17.2063C16.7233 18.5899 16.3312 18.145 16.3312 17.597V16.7689H9.21794V17.597C9.21794 18.1454 8.82543 18.5899 8.3424 18.5899H7.53899C7.05597 18.5899 6.6639 18.145 6.6639 17.597V16.505C6.12755 16.0964 5.89007 15.258 5.89007 14.2852V13.2914C5.89007 12.9562 5.94518 12.6363 6.04331 12.3442C6.04331 12.3428 6.04465 12.3415 6.04465 12.3397H5.86094C5.44781 12.3397 5.1131 11.9597 5.1131 11.4915C5.1131 11.0228 5.44781 10.6428 5.86094 10.6428H6.58996C6.6164 10.6428 6.64104 10.6486 6.66614 10.6513L7.61606 8.23393C7.91628 7.4704 8.63947 6.89462 9.29905 6.89462H11.2061ZM7.80919 11.2334C7.80919 11.9987 17.8789 11.9978 17.8789 11.2329C17.8789 11.1343 17.86 11.0116 17.8587 11.0031C17.6804 10.2857 16.9948 8.80254 16.9948 8.80254C16.829 8.38045 16.4127 8.0529 16.1658 8.0529H9.52443C9.27754 8.0529 8.86127 8.38045 8.69504 8.80299C8.69504 8.80299 8.09237 10.1808 7.83025 11.0035C7.828 11.0116 7.80919 11.1352 7.80919 11.2334ZM9.76415 14.5249C9.76415 13.9232 9.27395 13.433 8.6695 13.433C8.06549 13.433 7.57529 13.9223 7.57529 14.5249C7.57529 15.1272 8.06549 15.616 8.6695 15.616C9.27395 15.6165 9.76415 15.1276 9.76415 14.5249ZM18.2454 14.5249C18.2454 13.9232 17.7556 13.433 17.1512 13.433C16.5472 13.433 16.0565 13.9223 16.0565 14.5249C16.0565 15.1272 16.5463 15.616 17.1512 15.616C17.7561 15.616 18.2454 15.1276 18.2454 14.5249ZM11.151 14.2516C11.0542 14.2516 10.9758 14.33 10.9758 14.4268C10.9758 14.5236 11.0542 14.6025 11.151 14.6025H14.5519C14.6491 14.6025 14.7275 14.5236 14.7275 14.4268C14.7275 14.33 14.6491 14.2516 14.5519 14.2516H11.151ZM11.151 15.0703C11.0542 15.0703 10.9758 15.1487 10.9758 15.2455C10.9758 15.3422 11.0542 15.4211 11.151 15.4211H14.5519C14.6491 15.4211 14.7275 15.3422 14.7275 15.2455C14.7275 15.1487 14.6491 15.0703 14.5519 15.0703H11.151Z" fill="white"/>
</g>
<mask id="mask1_3488_2588" style="mask-type:luminance" maskUnits="userSpaceOnUse" x="3" y="3" width="19" height="19">
<path d="M3.69043 3.39307H21.8573V21.56H3.69043V3.39307Z" fill="white"/>
</mask>
<g mask="url(#mask1_3488_2588)">
<mask id="mask2_3488_2588" style="mask-type:luminance" maskUnits="userSpaceOnUse" x="3" y="3" width="19" height="19">
<path d="M12.7739 3.39307C7.75719 3.39307 3.69043 7.45983 3.69043 12.4765C3.69043 17.4932 7.75719 21.56 12.7739 21.56C17.7906 21.56 21.8573 17.4932 21.8573 12.4765C21.8573 7.45983 17.7906 3.39307 12.7739 3.39307Z" fill="white"/>
</mask>
<g mask="url(#mask2_3488_2588)">
<path d="M3.69043 3.39307H21.8573V21.56H3.69043V3.39307Z" fill="white"/>
</g>
</g>
<mask id="mask3_3488_2588" style="mask-type:luminance" maskUnits="userSpaceOnUse" x="6" y="6" width="6" height="6">
<path d="M6.3501 6.37793H11.9708V11.3104H6.3501V6.37793Z" fill="white"/>
</mask>
<g mask="url(#mask3_3488_2588)">
<mask id="mask4_3488_2588" style="mask-type:luminance" maskUnits="userSpaceOnUse" x="4" y="5" width="13" height="18">
<path d="M4.96655 6.76527L14.6486 5.89062L16.0811 21.7418L6.39906 22.6165L4.96655 6.76527Z" fill="white"/>
</mask>
<g mask="url(#mask4_3488_2588)">
<mask id="mask5_3488_2588" style="mask-type:luminance" maskUnits="userSpaceOnUse" x="4" y="5" width="13" height="18">
<path d="M4.96655 6.76527L14.6486 5.89062L16.0811 21.7418L6.39906 22.6165L4.96655 6.76527Z" fill="white"/>
</mask>
<g mask="url(#mask5_3488_2588)">
<path d="M7.45651 11.2844C7.5282 11.2777 7.5981 11.2468 7.65232 11.1912C7.77374 11.0671 7.7715 10.8686 7.64739 10.7476C7.27862 10.3869 7.04965 9.90526 7.00305 9.39131C6.89551 8.19897 7.77778 7.14106 8.97011 7.03352C10.1629 6.92554 11.2204 7.8078 11.3284 9.00014C11.375 9.51453 11.236 10.0294 10.9376 10.4501C10.8373 10.5917 10.8709 10.7875 11.012 10.8874C11.1536 10.9878 11.3494 10.9542 11.4493 10.8131C11.8338 10.2704 12.013 9.60684 11.953 8.94368C11.8141 7.40722 10.451 6.26955 8.91366 6.40845C7.37675 6.54736 6.23952 7.91086 6.37843 9.44777C6.43847 10.1105 6.73331 10.7315 7.20917 11.1962C7.27727 11.2629 7.36823 11.2925 7.45651 11.2844Z" fill="#800000"/>
</g>
</g>
</g>
<mask id="mask6_3488_2588" style="mask-type:luminance" maskUnits="userSpaceOnUse" x="5" y="7" width="12" height="16">
<path d="M5.66211 7.98389H16.1005V22.2077H5.66211V7.98389Z" fill="white"/>
</mask>
<g mask="url(#mask6_3488_2588)">
<mask id="mask7_3488_2588" style="mask-type:luminance" maskUnits="userSpaceOnUse" x="4" y="5" width="13" height="18">
<path d="M4.96655 6.76527L14.6486 5.89062L16.0811 21.7418L6.39906 22.6165L4.96655 6.76527Z" fill="white"/>
</mask>
<g mask="url(#mask7_3488_2588)">
<mask id="mask8_3488_2588" style="mask-type:luminance" maskUnits="userSpaceOnUse" x="4" y="5" width="13" height="18">
<path d="M4.96655 6.76527L14.6486 5.89062L16.0811 21.7418L6.39906 22.6165L4.96655 6.76527Z" fill="white"/>
</mask>
<g mask="url(#mask8_3488_2588)">
<path d="M8.09141 9.08466L8.74157 16.2826C8.43643 15.8551 7.99866 15.2865 7.55775 14.8649C7.15672 14.4809 6.64591 14.4128 6.11942 14.6722C5.9133 14.7739 5.77484 14.9782 5.75961 15.2157C5.7493 15.3734 5.80039 15.5285 5.89359 15.6557C6.12211 15.9707 6.40888 16.4762 6.74045 17.0596C7.50801 18.4128 8.37818 19.9465 9.20623 20.3686C9.86042 20.7024 11.331 22.0498 11.3458 22.0633C11.3852 22.0995 11.4372 22.117 11.4901 22.1121L15.8804 21.7155C15.9673 21.7075 16.0403 21.6403 16.0506 21.5475C16.056 21.5 16.0412 21.453 16.0134 21.4144C15.5739 20.8006 15.146 20.0034 15.2091 19.7928C15.2145 19.7754 15.7267 17.9777 15.6711 17.3186L15.4278 14.6234C15.3884 14.1896 15.0035 13.8683 14.5702 13.9078H14.5675C14.4474 13.919 14.3582 14.0261 14.369 14.1462L14.4116 14.618C14.421 14.7206 14.3502 14.8174 14.2476 14.8299C14.1418 14.8425 14.0473 14.7654 14.0374 14.6597L13.9536 13.729C13.9115 13.2657 13.5181 12.9032 13.0534 12.9225C13.0364 12.9233 13.0194 12.9247 13.0019 12.926C13.0006 12.926 12.9983 12.9265 12.997 12.9265C12.7241 12.9525 12.5269 13.1989 12.5516 13.4718L12.5928 13.9297C12.6022 14.0323 12.5314 14.1291 12.4288 14.1412C12.3231 14.1542 12.2285 14.0767 12.2187 13.9714L12.1156 12.8288C12.0739 12.3673 11.681 12.0075 11.2181 12.029C11.2024 12.0299 11.1867 12.0308 11.1711 12.0321C11.1693 12.0321 11.1675 12.0326 11.1657 12.0326C10.8955 12.0586 10.6997 12.3028 10.7243 12.573L10.8319 13.7648C10.8413 13.8675 10.77 13.9638 10.6679 13.9763C10.5621 13.9889 10.4671 13.9118 10.4577 13.8065L10.0155 8.91081C9.96751 8.37939 9.49793 7.98777 8.96651 8.03571C8.43509 8.0841 8.04347 8.55324 8.09141 9.08466Z" fill="#800000"/>
</g>
</g>
</g>
<mask id="mask9_3488_2588" style="mask-type:luminance" maskUnits="userSpaceOnUse" x="12" y="6" width="8" height="7">
<path d="M12.22 6.50391H19.8767V12.6981H12.22V6.50391Z" fill="white"/>
</mask>
<g mask="url(#mask9_3488_2588)">
<path d="M15.0599 17.612C14.8112 16.887 14.3564 16.2507 13.7515 15.7807L12.2635 14.6255C10.736 13.4399 9.80799 11.6409 9.72778 9.70877C9.72778 6.203 12.5695 3.36084 16.0753 3.36084C19.5815 3.36084 22.4232 6.203 22.4232 9.70877C22.343 11.6409 21.415 13.4399 19.8875 14.6255L18.3994 15.7807C17.7945 16.2507 17.3397 16.887 17.0911 17.612L16.9163 18.1223C16.7931 18.4812 16.4552 18.7228 16.0753 18.7228C15.6957 18.7228 15.3579 18.4812 15.2347 18.1223L15.0599 17.612ZM16.0753 20.8807C14.6732 20.8807 13.5364 20.7104 13.5364 20.5003C13.5364 20.2897 14.6732 20.119 16.0753 20.119C17.4777 20.119 18.6145 20.2897 18.6145 20.5003C18.6145 20.7104 17.4777 20.8807 16.0753 20.8807ZM16.0753 14.66C18.8802 14.66 21.1538 12.3865 21.1538 9.58196C21.1538 6.77699 18.8802 4.50344 16.0753 4.50344C13.2707 4.50344 10.9972 6.77699 10.9972 9.58196C10.9972 12.3865 13.2707 14.66 16.0753 14.66ZM15.2965 6.78864H17.8031C18.1252 6.78864 18.4935 7.08123 18.6396 7.45448L19.1123 8.65668C19.1244 8.65489 19.1365 8.6522 19.1495 8.6522H19.5125C19.7172 8.65175 19.8844 8.84039 19.8844 9.07429C19.8844 9.30684 19.7172 9.49593 19.5125 9.49593H19.4215C19.4215 9.49638 19.4215 9.49683 19.4215 9.49772C19.4712 9.64335 19.4986 9.80241 19.4986 9.9691V10.4633C19.4986 10.9468 19.3807 11.364 19.1137 11.5669V12.11C19.1137 12.3825 18.9183 12.6034 18.6786 12.6034H18.2794C18.0392 12.6034 17.8443 12.3825 17.8443 12.11V11.6982H14.3076V12.11C14.3076 12.3825 14.1127 12.6034 13.8725 12.6034H13.4728C13.2327 12.6034 13.0377 12.3825 13.0377 12.11V11.5669C12.7711 11.364 12.6528 10.9468 12.6528 10.4633V9.9691C12.6528 9.80241 12.6806 9.6438 12.7295 9.49817C12.7295 9.49772 12.7299 9.49683 12.7299 9.49593H12.6385C12.4333 9.49593 12.2666 9.30684 12.2666 9.07429C12.2666 8.84129 12.4333 8.6522 12.6385 8.6522H13.001C13.0144 8.6522 13.0265 8.65533 13.0391 8.65668L13.5114 7.45448C13.6606 7.07496 14.0199 6.78864 14.3479 6.78864H15.2965ZM13.6072 8.94569C13.6072 9.32656 18.6136 9.32611 18.6136 8.94569C18.6136 8.89685 18.6042 8.83546 18.6038 8.83143C18.515 8.47476 18.1745 7.73722 18.1745 7.73722C18.0921 7.52752 17.885 7.36487 17.7623 7.36487H14.4599C14.3372 7.36487 14.1302 7.52752 14.0477 7.73767C14.0477 7.73767 13.7479 8.42278 13.618 8.83188C13.6167 8.83546 13.6072 8.8973 13.6072 8.94569ZM14.5791 10.5825C14.5791 10.2832 14.3354 10.0394 14.0352 10.0394C13.7349 10.0394 13.4907 10.2828 13.4907 10.5825C13.4907 10.8818 13.7345 11.1251 14.0352 11.1251C14.3354 11.1251 14.5791 10.8823 14.5791 10.5825ZM18.796 10.5825C18.796 10.2832 18.5527 10.0394 18.252 10.0394C17.9518 10.0394 17.7076 10.2828 17.7076 10.5825C17.7076 10.8818 17.9514 11.1251 18.252 11.1251C18.5527 11.1251 18.796 10.8823 18.796 10.5825ZM15.2687 10.4463C15.2208 10.4463 15.1818 10.4857 15.1818 10.5337C15.1818 10.5821 15.2208 10.6211 15.2687 10.6211H16.9598C17.0077 10.6211 17.0471 10.5821 17.0471 10.5337C17.0471 10.4857 17.0077 10.4463 16.9598 10.4463H15.2687ZM15.2687 10.8536C15.2208 10.8536 15.1818 10.8926 15.1818 10.941C15.1818 10.9889 15.2208 11.0279 15.2687 11.0279H16.9598C17.0077 11.0279 17.0471 10.9889 17.0471 10.941C17.0471 10.8926 17.0077 10.8536 16.9598 10.8536H15.2687Z" fill="#800000"/>
</g>
</svg>
